<svg width="252" height="10" viewBox="0 0 252 10" fill="none" xmlns="http://www.w3.org/2000/svg">
<path d="M3.01001 9L0.623648 0.272727H1.69751L3.52137 7.38068H3.6066L5.46456 0.272727H6.65774L8.51569 7.38068H8.60092L10.4248 0.272727H11.4986L9.11228 9H8.02138L6.09524 2.04545H6.02706L4.10092 9H3.01001ZM13.4154 9V0.272727H18.6825V1.21023H14.4722V4.15909H18.4097V5.09659H14.4722V8.0625H18.7506V9H13.4154ZM21.9202 0.272727V3.27273H20.9827V0.272727H21.9202ZM24.4474 9V0.272727H27.3963C28.0781 0.272727 28.6378 0.389204 29.0753 0.622159C29.5128 0.852272 29.8366 1.16903 30.0469 1.57244C30.2571 1.97585 30.3622 2.43466 30.3622 2.94886C30.3622 3.46307 30.2571 3.91903 30.0469 4.31676C29.8366 4.71449 29.5142 5.02699 29.0795 5.25426C28.6449 5.47869 28.0895 5.59091 27.4133 5.59091H25.027V4.63636H27.3793C27.8452 4.63636 28.2202 4.56818 28.5043 4.43182C28.7912 4.29545 28.9986 4.10227 29.1264 3.85227C29.2571 3.59943 29.3224 3.2983 29.3224 2.94886C29.3224 2.59943 29.2571 2.29403 29.1264 2.03267C28.9957 1.77131 28.7869 1.5696 28.5 1.42756C28.2131 1.28267 27.8338 1.21023 27.3622 1.21023H25.5043V9H24.4474ZM28.5554 5.07955L30.7031 9H29.4758L27.3622 5.07955H28.5554ZM32.7232 9V0.272727H37.9903V1.21023H33.78V4.15909H37.7175V5.09659H33.78V8.0625H38.0585V9H32.7232ZM44.4701 9V0.272727H47.419C48.1036 0.272727 48.6633 0.396307 49.0979 0.643466C49.5354 0.887784 49.8593 1.21875 50.0695 1.63636C50.2798 2.05398 50.3849 2.51989 50.3849 3.03409C50.3849 3.5483 50.2798 4.01562 50.0695 4.43608C49.8621 4.85653 49.5411 5.19176 49.1065 5.44176C48.6718 5.68892 48.115 5.8125 47.436 5.8125H45.3224V4.875H47.4019C47.8707 4.875 48.2471 4.79403 48.5312 4.6321C48.8153 4.47017 49.0212 4.25142 49.1491 3.97585C49.2798 3.69744 49.3451 3.38352 49.3451 3.03409C49.3451 2.68466 49.2798 2.37216 49.1491 2.09659C49.0212 1.82102 48.8138 1.60511 48.5269 1.44886C48.24 1.28977 47.8593 1.21023 47.3849 1.21023H45.5269V9H44.4701ZM52.1546 9H51.0467L54.2512 0.272727H55.3421L58.5467 9H57.4387L54.8308 1.65341H54.7626L52.1546 9ZM52.5637 5.59091H57.0296V6.52841H52.5637V5.59091ZM60.506 9V0.272727H63.4549C64.1367 0.272727 64.6964 0.389204 65.1339 0.622159C65.5714 0.852272 65.8952 1.16903 66.1055 1.57244C66.3157 1.97585 66.4208 2.43466 66.4208 2.94886C66.4208 3.46307 66.3157 3.91903 66.1055 4.31676C65.8952 4.71449 65.5728 5.02699 65.1381 5.25426C64.7035 5.47869 64.1481 5.59091 63.4719 5.59091H61.0856V4.63636H63.4379C63.9038 4.63636 64.2788 4.56818 64.5629 4.43182C64.8498 4.29545 65.0572 4.10227 65.185 3.85227C65.3157 3.59943 65.381 3.2983 65.381 2.94886C65.381 2.59943 65.3157 2.29403 65.185 2.03267C65.0543 1.77131 64.8455 1.5696 64.5586 1.42756C64.2717 1.28267 63.8924 1.21023 63.4208 1.21023H61.5629V9H60.506ZM64.614 5.07955L66.7617 9H65.5344L63.4208 5.07955H64.614ZM68.3045 1.21023V0.272727H74.85V1.21023H72.1057V9H71.0489V1.21023H68.3045ZM88.4197 4.63636C88.4197 5.55682 88.2535 6.35227 87.9211 7.02273C87.5887 7.69318 87.1327 8.21023 86.5532 8.57386C85.9736 8.9375 85.3117 9.11932 84.5674 9.11932C83.8231 9.11932 83.1611 8.9375 82.5816 8.57386C82.0021 8.21023 81.5461 7.69318 81.2137 7.02273C80.8813 6.35227 80.7151 5.55682 80.7151 4.63636C80.7151 3.71591 80.8813 2.92045 81.2137 2.25C81.5461 1.57955 82.0021 1.0625 82.5816 0.698864C83.1611 0.335227 83.8231 0.153409 84.5674 0.153409C85.3117 0.153409 85.9736 0.335227 86.5532 0.698864C87.1327 1.0625 87.5887 1.57955 87.9211 2.25C88.2535 2.92045 88.4197 3.71591 88.4197 4.63636ZM87.3969 4.63636C87.3969 3.88068 87.2705 3.2429 87.0177 2.72301C86.7677 2.20312 86.4282 1.80966 85.9992 1.54261C85.5731 1.27557 85.0958 1.14205 84.5674 1.14205C84.039 1.14205 83.5603 1.27557 83.1313 1.54261C82.7052 1.80966 82.3657 2.20312 82.1129 2.72301C81.8629 3.2429 81.7379 3.88068 81.7379 4.63636C81.7379 5.39205 81.8629 6.02983 82.1129 6.54972C82.3657 7.0696 82.7052 7.46307 83.1313 7.73011C83.5603 7.99716 84.039 8.13068 84.5674 8.13068C85.0958 8.13068 85.5731 7.99716 85.9992 7.73011C86.4282 7.46307 86.7677 7.0696 87.0177 6.54972C87.2705 6.02983 87.3969 5.39205 87.3969 4.63636ZM90.7967 9V0.272727H96.0296V1.21023H91.8535V4.15909H95.6376V5.09659H91.8535V9H90.7967ZM101.937 1.21023V0.272727H108.483V1.21023H105.738V9H104.682V1.21023H101.937ZM110.714 9V0.272727H111.771V4.15909H116.424V0.272727H117.481V9H116.424V5.09659H111.771V9H110.714ZM120.197 9V0.272727H125.464V1.21023H121.253V4.15909H125.191V5.09659H121.253V8.0625H125.532V9H120.197ZM131.944 9V0.272727H134.892C135.574 0.272727 136.134 0.389204 136.571 0.622159C137.009 0.852272 137.333 1.16903 137.543 1.57244C137.753 1.97585 137.858 2.43466 137.858 2.94886C137.858 3.46307 137.753 3.91903 137.543 4.31676C137.333 4.71449 137.01 5.02699 136.576 5.25426C136.141 5.47869 135.586 5.59091 134.909 5.59091H132.523V4.63636H134.875C135.341 4.63636 135.716 4.56818 136 4.43182C136.287 4.29545 136.495 4.10227 136.623 3.85227C136.753 3.59943 136.819 3.2983 136.819 2.94886C136.819 2.59943 136.753 2.29403 136.623 2.03267C136.492 1.77131 136.283 1.5696 135.996 1.42756C135.709 1.28267 135.33 1.21023 134.858 1.21023H133V9H131.944ZM136.051 5.07955L138.199 9H136.972L134.858 5.07955H136.051ZM140.219 9V0.272727H145.486V1.21023H141.276V4.15909H145.214V5.09659H141.276V8.0625H145.555V9H140.219ZM147.991 0.272727H149.253L152.218 7.51705H152.321L155.287 0.272727H156.548V9H155.559V2.36932H155.474L152.747 9H151.792L149.065 2.36932H148.98V9H147.991V0.272727ZM166.631 4.63636C166.631 5.55682 166.464 6.35227 166.132 7.02273C165.8 7.69318 165.344 8.21023 164.764 8.57386C164.185 8.9375 163.523 9.11932 162.778 9.11932C162.034 9.11932 161.372 8.9375 160.793 8.57386C160.213 8.21023 159.757 7.69318 159.425 7.02273C159.092 6.35227 158.926 5.55682 158.926 4.63636C158.926 3.71591 159.092 2.92045 159.425 2.25C159.757 1.57955 160.213 1.0625 160.793 0.698864C161.372 0.335227 162.034 0.153409 162.778 0.153409C163.523 0.153409 164.185 0.335227 164.764 0.698864C165.344 1.0625 165.8 1.57955 166.132 2.25C166.464 2.92045 166.631 3.71591 166.631 4.63636ZM165.608 4.63636C165.608 3.88068 165.481 3.2429 165.229 2.72301C164.979 2.20312 164.639 1.80966 164.21 1.54261C163.784 1.27557 163.307 1.14205 162.778 1.14205C162.25 1.14205 161.771 1.27557 161.342 1.54261C160.916 1.80966 160.577 2.20312 160.324 2.72301C160.074 3.2429 159.949 3.88068 159.949 4.63636C159.949 5.39205 160.074 6.02983 160.324 6.54972C160.577 7.0696 160.916 7.46307 161.342 7.73011C161.771 7.99716 162.25 8.13068 162.778 8.13068C163.307 8.13068 163.784 7.99716 164.21 7.73011C164.639 7.46307 164.979 7.0696 165.229 6.54972C165.481 6.02983 165.608 5.39205 165.608 4.63636ZM168.167 1.21023V0.272727H174.712V1.21023H171.968V9H170.911V1.21023H168.167ZM176.944 9V0.272727H182.211V1.21023H178V4.15909H181.938V5.09659H178V8.0625H182.279V9H176.944ZM195.713 3H194.656C194.594 2.69602 194.484 2.42898 194.328 2.19886C194.175 1.96875 193.987 1.77557 193.766 1.61932C193.547 1.46023 193.304 1.34091 193.037 1.26136C192.77 1.18182 192.492 1.14205 192.202 1.14205C191.673 1.14205 191.195 1.27557 190.766 1.54261C190.34 1.80966 190 2.20312 189.747 2.72301C189.497 3.2429 189.372 3.88068 189.372 4.63636C189.372 5.39205 189.497 6.02983 189.747 6.54972C190 7.0696 190.34 7.46307 190.766 7.73011C191.195 7.99716 191.673 8.13068 192.202 8.13068C192.492 8.13068 192.77 8.09091 193.037 8.01136C193.304 7.93182 193.547 7.81392 193.766 7.65767C193.987 7.49858 194.175 7.30398 194.328 7.07386C194.484 6.84091 194.594 6.57386 194.656 6.27273H195.713C195.634 6.71875 195.489 7.1179 195.278 7.47017C195.068 7.82244 194.807 8.12216 194.494 8.36932C194.182 8.61364 193.831 8.79972 193.442 8.92756C193.055 9.0554 192.642 9.11932 192.202 9.11932C191.457 9.11932 190.796 8.9375 190.216 8.57386C189.636 8.21023 189.18 7.69318 188.848 7.02273C188.516 6.35227 188.349 5.55682 188.349 4.63636C188.349 3.71591 188.516 2.92045 188.848 2.25C189.18 1.57955 189.636 1.0625 190.216 0.698864C190.796 0.335227 191.457 0.153409 192.202 0.153409C192.642 0.153409 193.055 0.217329 193.442 0.34517C193.831 0.473011 194.182 0.660511 194.494 0.90767C194.807 1.15199 195.068 1.45028 195.278 1.80256C195.489 2.15199 195.634 2.55114 195.713 3ZM205.385 4.63636C205.385 5.55682 205.218 6.35227 204.886 7.02273C204.554 7.69318 204.098 8.21023 203.518 8.57386C202.938 8.9375 202.277 9.11932 201.532 9.11932C200.788 9.11932 200.126 8.9375 199.546 8.57386C198.967 8.21023 198.511 7.69318 198.179 7.02273C197.846 6.35227 197.68 5.55682 197.68 4.63636C197.68 3.71591 197.846 2.92045 198.179 2.25C198.511 1.57955 198.967 1.0625 199.546 0.698864C200.126 0.335227 200.788 0.153409 201.532 0.153409C202.277 0.153409 202.938 0.335227 203.518 0.698864C204.098 1.0625 204.554 1.57955 204.886 2.25C205.218 2.92045 205.385 3.71591 205.385 4.63636ZM204.362 4.63636C204.362 3.88068 204.235 3.2429 203.983 2.72301C203.733 2.20312 203.393 1.80966 202.964 1.54261C202.538 1.27557 202.061 1.14205 201.532 1.14205C201.004 1.14205 200.525 1.27557 200.096 1.54261C199.67 1.80966 199.331 2.20312 199.078 2.72301C198.828 3.2429 198.703 3.88068 198.703 4.63636C198.703 5.39205 198.828 6.02983 199.078 6.54972C199.331 7.0696 199.67 7.46307 200.096 7.73011C200.525 7.99716 201.004 8.13068 201.532 8.13068C202.061 8.13068 202.538 7.99716 202.964 7.73011C203.393 7.46307 203.733 7.0696 203.983 6.54972C204.235 6.02983 204.362 5.39205 204.362 4.63636ZM207.761 0.272727H209.023L211.989 7.51705H212.091L215.057 0.272727H216.318V9H215.33V2.36932H215.244L212.517 9H211.563L208.835 2.36932H208.75V9H207.761V0.272727ZM219.037 9V0.272727H221.986C222.671 0.272727 223.23 0.396307 223.665 0.643466C224.103 0.887784 224.426 1.21875 224.637 1.63636C224.847 2.05398 224.952 2.51989 224.952 3.03409C224.952 3.5483 224.847 4.01562 224.637 4.43608C224.429 4.85653 224.108 5.19176 223.674 5.44176C223.239 5.68892 222.682 5.8125 222.003 5.8125H219.89V4.875H221.969C222.438 4.875 222.814 4.79403 223.098 4.6321C223.382 4.47017 223.588 4.25142 223.716 3.97585C223.847 3.69744 223.912 3.38352 223.912 3.03409C223.912 2.68466 223.847 2.37216 223.716 2.09659C223.588 1.82102 223.381 1.60511 223.094 1.44886C222.807 1.28977 222.426 1.21023 221.952 1.21023H220.094V9H219.037ZM226.722 9H225.614L228.818 0.272727H229.909L233.114 9H232.006L229.398 1.65341H229.33L226.722 9ZM227.131 5.59091H231.597V6.52841H227.131V5.59091ZM241.994 0.272727V9H240.971L236.215 2.14773H236.13V9H235.073V0.272727H236.096L240.869 7.14205H240.954V0.272727H241.994ZM243.958 0.272727H245.169L247.589 4.34659H247.691L250.112 0.272727H251.322L248.169 5.40341V9H247.112V5.40341L243.958 0.272727Z" fill="#021412"/>
</svg>
